# xmcd
#
# Track frame offsets:
#	150
#	15402
#	30922
#	39967
#	60435
#	79545
#	89195
#	107735
#	122602
#	136347
#	154320
#	172082
#	191067
#
# Disc length: 2792 seconds
#
# Revision: 0
# Processed by: cddbd v1.4PL0 Copyright (c) Steve Scherf et al.
# Submitted via: dBpowerAMP V4.0
#
DISCID=9f0ae60d
DTITLE=Patrick Verbeke - Funky Français
DYEAR=1996
DGENRE=Blues
TTITLE0=Funky Français
TTITLE1=Si T'as Mal (Le Blues Te Fais Du Bien)
TTITLE2=J'ai Qu'une Idée
TTITLE3=Delta Queen
TTITLE4=Laisse Parler Ton Coeur
TTITLE5=Mon P'tit Monde
TTITLE6=Salut L'ami
TTITLE7=Le Dieu A La Main Lente
TTITLE8=Monsieur Blues
TTITLE9=Conduite En État D'amour
TTITLE10=Willie and Leadbelly
TTITLE11=Carte Blues
TTITLE12=Le Tatoo Voyageur
EXTD=
EXTT0=
EXTT1=
EXTT2=
EXTT3=
EXTT4=
EXTT5=
EXTT6=
EXTT7=
EXTT8=
EXTT9=
EXTT10=
EXTT11=
EXTT12=
PLAYORDER=
